<svg xmlns="http://www.w3.org/2000/svg" viewBox="0 0 64 64" fill="none">
  <defs>
    <linearGradient id="g" x1="0" y1="0" x2="64" y2="64" gradientUnits="userSpaceOnUse">
      <stop stop-color="#8b5cf6"/>
      <stop offset="1" stop-color="#06b6d4"/>
    </linearGradient>
  </defs>
  <rect width="64" height="64" rx="16" fill="#0a0a1a"/>
  <path d="M32 12C21 12 12 21 12 32c0 8.8 5.7 16.3 13.6 18.9 1 .2 1.4-.4 1.4-1v-3.5c-5.5 1.2-6.7-2.7-6.7-2.7-.9-2.3-2.2-2.9-2.2-2.9-1.8-1.3.1-1.2.1-1.2 2 .1 3.1 2.1 3.1 2.1 1.8 3 4.6 2.1 5.8 1.6.2-1.3.7-2.1 1.3-2.6-4.4-.5-9-2.2-9-9.8 0-2.2.8-3.9 2-5.3-.2-.5-.9-2.5.2-5.2 0 0 1.7-.5 5.4 2a18.7 18.7 0 0 1 10 0c3.7-2.5 5.4-2 5.4-2 1.1 2.7.4 4.7.2 5.2 1.3 1.4 2 3.1 2 5.3 0 7.6-4.6 9.3-9 9.8.7.6 1.3 1.8 1.3 3.7v5.5c0 .5.3 1.2 1.4 1C46.3 48.3 52 40.8 52 32c0-11-9-20-20-20z" fill="url(#g)"/>
  <circle cx="48" cy="14" r="6" fill="#8b5cf6" opacity="0.9"/>
  <path d="M45.5 14l1.5 1.5 3.5-3.5" stroke="white" stroke-width="1.5" stroke-linecap="round" stroke-linejoin="round"/>
</svg>